<mxfile host="drawio-plugin" modified="2022-02-24T15:26:50.620Z" agent="5.0 (Macintosh; Intel Mac OS X 12_2_1) AppleWebKit/537.36 (KHTML, like Gecko) Chrome/89.0.4389.114 Safari/537.36" version="15.5.4" etag="U6ygAvDwlUjwXZpYyNXu" type="embed"><diagram id="QUCzo4dif8k_VvrcyLAZ" name="Page-1"><mxGraphModel dx="917" dy="641" grid="0" gridSize="10" guides="1" tooltips="1" connect="1" arrows="1" fold="1" page="1" pageScale="1" pageWidth="850" pageHeight="1100" math="0" shadow="0"><root><mxCell id="0"/><mxCell id="1" parent="0"/><mxCell id="2" value="Kafka" style="shape=cylinder3;whiteSpace=wrap;html=1;boundedLbl=1;backgroundOutline=1;size=15;" vertex="1" parent="1"><mxGeometry x="425" y="292" width="100" height="149" as="geometry"/></mxCell><mxCell id="4" value="" style="endArrow=classic;html=1;rounded=0;fontColor=#999999;strokeColor=#999999;" edge="1" parent="1"><mxGeometry width="50" height="50" relative="1" as="geometry"><mxPoint x="160" y="310" as="sourcePoint"/><mxPoint x="390" y="310" as="targetPoint"/></mxGeometry></mxCell><mxCell id="5" value="" style="endArrow=classic;html=1;rounded=0;fontColor=#999999;strokeColor=#999999;" edge="1" parent="1"><mxGeometry width="50" height="50" relative="1" as="geometry"><mxPoint x="160" y="334.58" as="sourcePoint"/><mxPoint x="390" y="334.58" as="targetPoint"/></mxGeometry></mxCell><mxCell id="6" value="" style="endArrow=classic;html=1;rounded=0;fontColor=#999999;strokeColor=#999999;" edge="1" parent="1"><mxGeometry width="50" height="50" relative="1" as="geometry"><mxPoint x="160" y="360" as="sourcePoint"/><mxPoint x="390" y="360" as="targetPoint"/></mxGeometry></mxCell><mxCell id="7" value="" style="endArrow=classic;html=1;rounded=0;fontColor=#999999;strokeColor=#999999;" edge="1" parent="1"><mxGeometry width="50" height="50" relative="1" as="geometry"><mxPoint x="160" y="384.5799999999999" as="sourcePoint"/><mxPoint x="390" y="384.5799999999999" as="targetPoint"/></mxGeometry></mxCell><mxCell id="9" value="" style="endArrow=classic;html=1;rounded=0;fontColor=#999999;strokeColor=#999999;" edge="1" parent="1"><mxGeometry width="50" height="50" relative="1" as="geometry"><mxPoint x="160" y="434.5799999999999" as="sourcePoint"/><mxPoint x="390" y="434.5799999999999" as="targetPoint"/></mxGeometry></mxCell><mxCell id="10" value="谁能告诉我？" style="text;html=1;strokeColor=none;fillColor=none;align=center;verticalAlign=middle;whiteSpace=wrap;rounded=0;fontSize=20;" vertex="1" parent="1"><mxGeometry x="395" y="480" width="140" height="30" as="geometry"/></mxCell><mxCell id="11" value="1. 你们到底谁在写我？&lt;br&gt;2. 你们又是谁在读我？&lt;br&gt;3. 你们用什么主题呢？" style="text;html=1;strokeColor=none;fillColor=none;align=center;verticalAlign=middle;whiteSpace=wrap;rounded=0;fontSize=20;fontColor=#FF3333;" vertex="1" parent="1"><mxGeometry x="163.5" y="458" width="228" height="70" as="geometry"/></mxCell><mxCell id="12" value="" style="endArrow=none;dashed=1;html=1;strokeWidth=2;rounded=0;fontSize=20;fontColor=#999999;strokeColor=#999999;" edge="1" parent="1"><mxGeometry width="50" height="50" relative="1" as="geometry"><mxPoint x="284" y="424" as="sourcePoint"/><mxPoint x="284" y="391" as="targetPoint"/></mxGeometry></mxCell><mxCell id="13" value="上百个 TCP 连接中" style="text;html=1;strokeColor=none;fillColor=none;align=center;verticalAlign=middle;whiteSpace=wrap;rounded=0;fontSize=20;fontColor=#999999;" vertex="1" parent="1"><mxGeometry x="174" y="260" width="207" height="30" as="geometry"/></mxCell></root></mxGraphModel></diagram></mxfile>